<svg width="32" height="32" viewBox="0 0 32 32" fill="none" xmlns="http://www.w3.org/2000/svg">
<path fill-rule="evenodd" clip-rule="evenodd" d="M25.5818 11.3419C25.4683 10.8893 25.2452 10.4763 24.935 10.144C24.6248 9.81167 24.2381 9.57173 23.8136 9.44806C22.2545 9 16 9 16 9C16 9 9.74545 9 8.18636 9.44806C7.76187 9.57173 7.37524 9.81167 7.065 10.144C6.75476 10.4763 6.53174 10.8893 6.41818 11.3419C6 13.0142 6 16.5 6 16.5C6 16.5 6 19.9858 6.41818 21.6581C6.5316 22.1109 6.75456 22.5241 7.06481 22.8566C7.37506 23.1891 7.76176 23.4292 8.18636 23.5529C9.74636 24 16 24 16 24C16 24 22.2545 24 23.8136 23.5529C24.2382 23.4292 24.6249 23.1891 24.9352 22.8566C25.2454 22.5241 25.4684 22.1109 25.5818 21.6581C26 19.9877 26 16.5 26 16.5C26 16.5 26 13.0142 25.5818 11.3419ZM13.9545 13.3345V19.6655L19.1818 16.5L13.9545 13.3345Z" fill="#CCCCCC"/>
</svg>
